Coordinates
version=1
nRows=15
nColumns=19
inDegrees=yes

Units are S.I. units (second, meters, Newtons, ...)
If the header above contains a line with 'inDegrees', this indicates whether rotational values are in degrees (yes) or radians (no).

endheader
time	pelvis_tilt	pelvis_list	pelvis_rotation	pelvis_tx	pelvis_ty	pelvis_tz	hip_flexion_r	hip_adduction_r	hip_rotation_r	knee_angle_r	knee_angle_r_beta	ankle_angle_r	hip_flexion_l	hip_adduction_l	hip_rotation_l	knee_angle_l	knee_angle_l_beta	ankle_angle_l
     13.30666667	      0.56952416	     12.36027804	     -3.30648376	      2.37696017	      1.00538265	      1.02773835	    -17.38900074	    -15.42535217	     -0.63994072	     81.64157601	      1.42491431	    -19.78353525	     32.89484574	     12.00300565	    -14.32985562	     29.72531791	      0.51880467	     -1.02931916
     13.31333333	      1.07254274	     12.33241985	     -2.65555828	      2.37661895	      1.00131490	      1.02856084	    -16.40375640	    -14.68185511	     -0.30168208	     85.51923918	      1.49259230	    -18.96092471	     31.79639885	     12.15679666	    -14.63624940	     31.60896852	      0.55168057	     -0.01643038
     13.32000000	      0.83846958	     12.00175495	     -1.94157203	      2.37586460	      0.99634803	      1.02923865	    -14.38130686	    -13.57971414	      0.26558165	     89.47697258	      1.56166778	    -18.09282098	     31.57598711	     11.93189138	    -14.67754531	     33.90960906	      0.59183433	      1.42517793
     13.32666667	      1.34407861	     12.20253151	     -1.22103511	      2.37516748	      0.99198557	      1.02975564	    -13.26936439	    -13.36703599	      0.14752759	     93.12919263	      1.62541104	    -17.06961761	     30.48755867	     12.38434556	    -14.66422866	     36.13284268	      0.63063707	      3.38164229
     13.33333333	      0.53570097	     11.74671500	     -0.28597849	      2.37367718	      0.98642117	      1.02987888	    -10.36346108	    -12.36582873	      0.41382469	     96.95978278	      1.69226745	    -16.11606369	     30.92865033	     12.22312294	    -13.97411469	     38.77802200	      0.67680416	      5.46486350
     13.34000000	      0.19890254	     11.63326029	      0.63845304	      2.37207845	      0.98142063	      1.02983073	     -7.96681095	    -12.00352640	      0.31479115	    100.53050894	      1.75458838	    -15.12039907	     30.77450191	     12.54271072	    -13.16429416	     41.30152977	      0.72084768	      7.88780988
     13.34666667	     -0.28252376	     11.47501567	      1.57017040	      2.37010930	      0.97653227	      1.02963787	     -5.23837061	    -11.72793288	      0.24329852	    103.97097127	      1.81463578	    -14.17233403	     30.71275576	     12.90563498	    -12.10261219	     43.77705097	      0.76405368	     10.45752596
     13.35333333	     -0.83188091	     11.29891138	      2.56223231	      2.36779500	      0.97192805	      1.02924031	     -2.29314936	    -11.58625730	      0.12361292	    107.22390346	      1.87141015	    -13.29814282	     30.61600444	     13.35831601	    -10.80160930	     46.11738431	      0.80490020	     13.03167532
     13.36000000	     -1.42998325	     11.03596382	      3.49567736	      2.36504925	      0.96776590	      1.02880225	      0.93006130	    -11.45544837	      0.13424702	    110.28313517	      1.92480382	    -12.53812511	     30.42190683	     13.76152485	     -9.35113311	     48.20496910	      0.84133543	     15.56046872
     13.36666667	     -1.99388928	     10.78635546	      4.46441686	      2.36212318	      0.96413672	      1.02827799	      4.22633260	    -11.45609795	      0.12297338	    113.04682183	      1.97303925	    -11.80236898	     29.99470806	     14.22284198	     -7.77717299	     49.99471666	      0.87257241	     17.92198108
     13.37333333	     -2.56567722	     10.42627597	      5.34389452	      2.35901060	      0.96112173	      1.02790680	      7.73547013	    -11.38859958	      0.24524741	    115.51629273	      2.01613965	    -11.22555501	     29.35276697	     14.50016887	     -6.21224433	     51.40869780	      0.89725104	     20.12640670
     13.38000000	     -2.99743693	     10.07826058	      6.25578583	      2.35578449	      0.95885789	      1.02745902	     11.16787487	    -11.41998003	      0.32336142	    117.60415825	      2.05257978	    -10.67102228	     28.31692548	     14.75313299	     -4.58761738	     52.41807047	      0.91486792	     22.10253057
     13.38666667	     -3.12265126	      9.63452954	      7.09013560	      2.35289661	      0.95776511	      1.02718280	     14.29394600	    -11.33773390	      0.36518147	    119.16521991	      2.07982544	    -10.18810259	     26.65021249	     14.74961245	     -2.99048930	     52.94627539	      0.92408683	     23.90189928
     13.39333333	     -2.36072146	      8.95198295	      8.12338842	      2.35134834	      0.95913917	      1.02665241	     16.09211548	    -10.99229793	     -0.23224940	    119.75493698	      2.09011795	     -9.74722943	     23.55538448	     14.36038725	     -1.02408543	     52.85854119	      0.92255558	     25.51851704
     13.40000000	     -1.35832956	      8.16261234	      9.12931460	      2.35002318	      0.96149040	      1.02604407	     17.57818615	    -10.55272790	     -0.97049573	    119.85811285	      2.09191870	     -9.22888214	     19.98456884	     13.61726237	      0.91767691	     52.29310597	      0.91268688	     26.87785849
